<svg width="199" height="42" viewBox="0 0 199 42" fill="none" xmlns="http://www.w3.org/2000/svg">
<path d="M25.4099 1.97695L21.4769 0.923096L18.1625 13.2927L15.1702 2.12533L11.2371 3.17919L14.4701 15.2447L6.41746 7.19207L3.53827 10.0713L12.371 18.9041L1.37124 15.9567L0.317383 19.8897L12.336 23.1101C12.1984 22.5166 12.1256 21.8982 12.1256 21.2628C12.1256 16.7652 15.7716 13.1192 20.2692 13.1192C24.7668 13.1192 28.4128 16.7652 28.4128 21.2628C28.4128 21.8941 28.3409 22.5087 28.205 23.0987L39.1277 26.0254L40.1815 22.0924L28.1151 18.8592L39.1156 15.9116L38.0617 11.9786L25.9958 15.2116L34.0484 7.15901L31.1692 4.27982L22.459 12.9901L25.4099 1.97695Z" fill="#6C63FF"/>
<path d="M28.1944 23.1443C27.8572 24.5699 27.1453 25.8506 26.1685 26.8767L34.0815 34.7898L36.9607 31.9106L28.1944 23.1443Z" fill="#6C63FF"/>
<path d="M26.0886 26.9597C25.1 27.9694 23.8507 28.7229 22.4497 29.1112L25.3291 39.8572L29.2621 38.8033L26.0886 26.9597Z" fill="#6C63FF"/>
<path d="M22.3028 29.1503C21.6528 29.3174 20.9715 29.4062 20.2694 29.4062C19.5172 29.4062 18.7888 29.3042 18.0973 29.1133L15.2153 39.8691L19.1483 40.9229L22.3028 29.1503Z" fill="#6C63FF"/>
<path d="M17.9583 29.0737C16.5787 28.6661 15.3516 27.903 14.3832 26.8904L6.45068 34.8229L9.32987 37.7021L17.9583 29.0737Z" fill="#6C63FF"/>
<path d="M14.3167 26.8202C13.3649 25.8012 12.6716 24.5376 12.3416 23.134L1.3833 26.0703L2.43715 30.0033L14.3167 26.8202Z" fill="#6C63FF"/>
<path d="M54.112 34V9.776H57.728V26L56.32 25.648L64.992 16.688H69.504L62.976 23.632L69.792 34H65.632L59.552 24.816L61.696 24.528L56.576 29.968L57.728 27.568V34H54.112ZM73.8043 41.072C73.3776 41.072 72.9509 41.0293 72.5243 40.944C72.1189 40.88 71.7456 40.7733 71.4043 40.624V37.52C71.6603 37.584 71.9696 37.6373 72.3323 37.68C72.6949 37.744 73.0469 37.776 73.3883 37.776C74.3909 37.776 75.1269 37.552 75.5963 37.104C76.0869 36.6773 76.5243 36.0053 76.9083 35.088L78.0603 32.464L77.9963 35.504L70.5083 16.688H74.3802L79.9163 31.12H78.6042L84.1083 16.688H88.0123L80.3643 35.888C79.9589 36.912 79.4469 37.808 78.8283 38.576C78.2309 39.3653 77.5163 39.9733 76.6843 40.4C75.8736 40.848 74.9136 41.072 73.8043 41.072ZM90.487 34V16.688H93.943V20.176L93.623 19.664C94.007 18.5333 94.6257 17.7227 95.479 17.232C96.3323 16.72 97.3563 16.464 98.551 16.464H99.607V19.76H98.103C96.9083 19.76 95.9377 20.1333 95.191 20.88C94.4657 21.6053 94.103 22.6507 94.103 24.016V34H90.487ZM110.433 34.384C108.769 34.384 107.243 33.9893 105.857 33.2C104.491 32.4107 103.403 31.3333 102.593 29.968C101.782 28.6027 101.377 27.056 101.377 25.328C101.377 23.5787 101.782 22.032 102.593 20.688C103.403 19.3227 104.491 18.256 105.857 17.488C107.222 16.6987 108.747 16.304 110.433 16.304C112.139 16.304 113.665 16.6987 115.009 17.488C116.374 18.256 117.451 19.3227 118.241 20.688C119.051 22.032 119.457 23.5787 119.457 25.328C119.457 27.0773 119.051 28.6347 118.241 30C117.43 31.3653 116.342 32.4427 114.977 33.232C113.611 34 112.097 34.384 110.433 34.384ZM110.433 31.024C111.457 31.024 112.363 30.7787 113.153 30.288C113.942 29.7973 114.561 29.1253 115.009 28.272C115.478 27.3973 115.713 26.416 115.713 25.328C115.713 24.24 115.478 23.2693 115.009 22.416C114.561 21.5627 113.942 20.8907 113.153 20.4C112.363 19.9093 111.457 19.664 110.433 19.664C109.43 19.664 108.523 19.9093 107.713 20.4C106.923 20.8907 106.294 21.5627 105.825 22.416C105.377 23.2693 105.153 24.24 105.153 25.328C105.153 26.416 105.377 27.3973 105.825 28.272C106.294 29.1253 106.923 29.7973 107.713 30.288C108.523 30.7787 109.43 31.024 110.433 31.024ZM122.987 34V16.688H126.443V20.432L125.995 19.856C126.358 18.6827 127.019 17.7973 127.979 17.2C128.939 16.6027 130.038 16.304 131.275 16.304C132.662 16.304 133.888 16.6773 134.955 17.424C136.043 18.1493 136.768 19.12 137.131 20.336L136.107 20.432C136.619 19.0453 137.398 18.0107 138.443 17.328C139.51 16.6453 140.726 16.304 142.091 16.304C143.286 16.304 144.363 16.5813 145.323 17.136C146.304 17.6907 147.083 18.4587 147.659 19.44C148.235 20.4213 148.523 21.5413 148.523 22.8V34H144.907V23.792C144.907 22.9173 144.747 22.1813 144.427 21.584C144.128 20.9653 143.702 20.496 143.147 20.176C142.614 19.8347 141.984 19.664 141.259 19.664C140.534 19.664 139.894 19.8347 139.339 20.176C138.784 20.496 138.347 20.9653 138.027 21.584C137.707 22.2027 137.547 22.9387 137.547 23.792V34H133.963V23.792C133.963 22.9173 133.803 22.1813 133.483 21.584C133.184 20.9653 132.758 20.496 132.203 20.176C131.67 19.8347 131.03 19.664 130.283 19.664C129.558 19.664 128.918 19.8347 128.363 20.176C127.808 20.496 127.371 20.9653 127.051 21.584C126.752 22.2027 126.603 22.9387 126.603 23.792V34H122.987ZM157.577 34.384C156.404 34.384 155.369 34.1813 154.473 33.776C153.599 33.3493 152.916 32.7733 152.425 32.048C151.935 31.3013 151.689 30.4267 151.689 29.424C151.689 28.4853 151.892 27.6427 152.297 26.896C152.724 26.1493 153.375 25.52 154.249 25.008C155.124 24.496 156.223 24.1333 157.545 23.92L163.561 22.928V25.776L158.249 26.704C157.289 26.8747 156.585 27.184 156.137 27.632C155.689 28.0587 155.465 28.6133 155.465 29.296C155.465 29.9573 155.711 30.5013 156.201 30.928C156.713 31.3333 157.364 31.536 158.153 31.536C159.135 31.536 159.988 31.3227 160.713 30.896C161.46 30.4693 162.036 29.904 162.441 29.2C162.847 28.4747 163.049 27.6747 163.049 26.8V22.352C163.049 21.4987 162.729 20.8053 162.089 20.272C161.471 19.7173 160.639 19.44 159.593 19.44C158.633 19.44 157.791 19.696 157.065 20.208C156.361 20.6987 155.839 21.3387 155.497 22.128L152.489 20.624C152.809 19.7707 153.332 19.024 154.057 18.384C154.783 17.7227 155.625 17.2107 156.585 16.848C157.567 16.4853 158.601 16.304 159.689 16.304C161.055 16.304 162.26 16.56 163.305 17.072C164.372 17.584 165.193 18.2987 165.769 19.216C166.367 20.112 166.665 21.1573 166.665 22.352V34H163.209V30.864L163.945 30.96C163.54 31.664 163.017 32.272 162.377 32.784C161.759 33.296 161.044 33.6907 160.233 33.968C159.444 34.2453 158.559 34.384 157.577 34.384ZM170.893 34V16.688H174.349V20.176L174.029 19.664C174.413 18.5333 175.032 17.7227 175.885 17.232C176.739 16.72 177.763 16.464 178.957 16.464H180.013V19.76H178.509C177.315 19.76 176.344 20.1333 175.597 20.88C174.872 21.6053 174.509 22.6507 174.509 24.016V34H170.893ZM182.487 34V9.776H186.103V26L184.695 25.648L193.367 16.688H197.879L191.351 23.632L198.167 34H194.007L187.927 24.816L190.071 24.528L184.951 29.968L186.103 27.568V34H182.487Z" fill="black"/>
</svg>
